# xmcd CD database file
#
# Track frame offsets:
#	150
#	13665
#	32479
#	52081
#	73456
#	92326
#	112669
#	126370
#	138831
#	160219
#	178377
#	203593
#	225640
#
# Disc length: 3193 seconds
#
# Revision: 1
# Processed by: cddbd v1.4PL0 Copyright (c) Steve Scherf et al.
# Submitted via: CDValet v3.40 - Copyright (c) 1996 - 1998 Greg Leichner
#
DISCID=ad0c770d
DTITLE=Muldaur, Maria - Classic Live!
DYEAR=1900
DGENRE=
TTITLE0=If You Haven't Any Hay
TTITLE1=Three Dollar Bill
TTITLE2=Richland Woman Blues
TTITLE3=Lover Man (Oh, Where Can You Be)
TTITLE4=My Tennessee Mountain Home
TTITLE5=Work Song
TTITLE6=Don't You Feel My Leg
TTITLE7=Walking One And Only
TTITLE8=Sweetheart (Waitress In A Donut Shop)
TTITLE9=Midnight At The Oasis
TTITLE10=Searchin'
TTITLE11=An Eagle Stirreth In Her Nest
TTITLE12=Travelin' Shoes
EXTD=
EXTT0=
EXTT1=
EXTT2=
EXTT3=
EXTT4=
EXTT5=
EXTT6=
EXTT7=
EXTT8=
EXTT9=
EXTT10=
EXTT11=
EXTT12=
PLAYORDER=
